<svg id="Layer_1" enable-background="new 0 0 512 512" 
height="50" viewBox="0 0 512 512" width="128" xmlns="http://www.w3.org/2000/svg"><g><g><g><path d="m223.019 135.386c-8.659 0-15.678 7.011-15.678 15.66v62.052c0 41.944-34.368 76.022-76.454 75.614-41.678-.404-74.96-34.947-74.96-76.579v-61.088c0-8.649-7.019-15.66-15.678-15.66s-15.678 7.011-15.678 15.66v60.876c0 39.536 21.261 74.47 53.061 93.325v44.477c0 30.126 24.538 54.636 54.699 54.636 30.162 0 54.7-24.509 54.7-54.636v-45.148c30.947-18.767 51.667-52.75 51.667-91.477v-62.052c0-8.649-7.02-15.66-15.679-15.66zm-67.345 214.338c0 12.857-10.472 23.316-23.343 23.316s-23.343-10.459-23.343-23.316v-32.122c7.099 1.548 14.463 2.389 22.021 2.432 8.483.049 16.74-.897 24.666-2.721v32.411z" fill="#ff5e57"/><g><path d="m223.019 135.386c-7.073 0-13.047 4.68-15 11.107.438 1.441.678 2.969.678 4.553v62.052c0 34.007-15.976 64.355-40.824 83.955-6.787 5.354-10.842 13.444-10.842 22.088v30.582c0 24.931-16.811 45.999-39.7 52.53 4.77 1.361 9.798 2.106 15 2.106 30.162 0 54.7-24.509 54.7-54.636v-45.148c30.947-18.767 51.667-52.75 51.667-91.478v-62.052c0-8.648-7.02-15.659-15.679-15.659z" fill="#f7372f"/></g><g fill="#cff5ff"><path d="m104.774 33.885h-14.31c-7.286 0-13.192-5.906-13.192-13.192 0-7.286 5.906-13.192 13.192-13.192h14.31c7.286 0 13.192 5.906 13.192 13.192 0 7.286-5.906 13.192-13.192 13.192z"/><path d="m172.805 33.885h-14.31c-7.286 0-13.192-5.906-13.192-13.192 0-7.286 5.906-13.192 13.192-13.192h14.31c7.286 0 13.193 5.906 13.193 13.192-.001 7.286-5.907 13.192-13.193 13.192z"/></g><g><ellipse cx="439.351" cy="218.914" fill="#cff5ff" rx="48.092" ry="48.035"/><path d="m439.351 170.879c-5.24 0-10.278.848-15 2.396 19.212 6.296 33.092 24.344 33.092 45.639 0 21.296-13.879 39.343-33.092 45.64 4.722 1.547 9.76 2.396 15 2.396 26.56 0 48.092-21.506 48.092-48.035 0-26.53-21.532-48.036-48.092-48.036z" fill="#b8f0ff"/><ellipse cx="439.351" cy="218.914" fill="#ff5e57" rx="12.386" ry="12.372"/></g></g></g><g fill="#060606"><path d="m163.174 349.724v-32.41c-.712-5.387-3.772-7.824-9.182-7.309-14.185 3.263-29.185 3.371-43.406.27-5.371-.461-8.404 1.982-9.098 7.328v32.122c0 16.992 13.836 30.816 30.843 30.816s30.843-13.825 30.843-30.817zm-46.686 0v-23.197c10.503 1.405 21.199 1.337 31.686-.186v23.382c0 8.721-7.107 15.816-15.843 15.816s-15.843-7.095-15.843-15.815z"/><path d="m493.4 205.931c-2.262-9.43-16.848-5.93-14.586 3.5.749 3.122 1.129 6.312 1.129 9.483 0 22.351-18.209 40.535-40.592 40.535s-40.592-18.184-40.592-40.535 18.209-40.535 40.592-40.535c7.094 0 14.085 1.865 20.22 5.394 8.405 4.837 15.885-8.167 7.479-13.002-8.406-4.836-17.984-7.392-27.699-7.392-28.123 0-51.421 20.975-55.077 48.085h-9.649c-29.094 0-52.763 23.669-52.763 52.763v141.983c0 50.062-40.829 90.79-91.015 90.79-48.449 0-88.173-37.959-90.865-85.628 30.698-3.781 54.549-29.976 54.549-61.649v-41.019c14.947-9.846 27.489-23.13 36.435-38.635 9.965-17.271 15.232-36.972 15.232-56.972v-62.052c0-10.148-6.568-18.786-15.678-21.909v-72.05c0-22.259-16.722-40.678-38.272-43.41-2.884-7.961-10.498-13.676-19.443-13.676h-14.31c-11.41 0-20.692 9.283-20.692 20.692 0 11.41 9.283 20.693 20.692 20.693h14.31c8.54 0 15.886-5.202 19.043-12.602 13.442 2.429 23.672 14.192 23.672 28.304v72.05c-9.11 3.123-15.678 11.761-15.678 21.909v62.052c0 18.271-7.176 35.44-20.207 48.345-13.052 12.926-30.349 19.916-48.674 19.77-37.238-.361-67.533-31.35-67.533-69.079v-61.088c0-10.148-6.569-18.787-15.679-21.909v-72.05c0-14.112 10.23-25.875 23.672-28.304 3.156 7.401 10.503 12.602 19.043 12.602h14.31c11.41 0 20.692-9.283 20.692-20.693 0-11.409-9.282-20.692-20.692-20.692h-14.31c-8.944 0-16.559 5.715-19.442 13.677-21.551 2.731-38.273 21.15-38.273 43.41v72.05c-9.11 3.123-15.678 11.761-15.678 21.909v14.316c0 9.697 15 9.697 15 0v-14.316c0-10.551 16.357-10.551 16.357 0v61.088c0 45.921 36.959 83.638 82.387 84.078 22.41.236 43.456-8.346 59.375-24.111 15.897-15.744 24.652-36.698 24.652-59.003v-62.052c0-10.551 16.356-10.551 16.356 0v62.052c0 35.017-17.965 66.817-48.056 85.064-2.242 1.359-3.611 3.791-3.611 6.413v45.148c0 25.991-21.174 47.136-47.2 47.136s-47.199-21.145-47.199-47.136v-44.477c0-2.648-1.397-5.101-3.675-6.451-34.67-20.557-49.924-57.414-49.386-96.4 0-9.697-15-9.697-15 0-.558 42.82 16.08 83.162 53.061 107.028v40.3c0 31.769 23.995 58.029 54.828 61.684 2.725 55.929 49.176 100.593 105.886 100.593 58.457 0 106.015-47.457 106.015-105.79v-141.982c0-20.823 16.94-37.763 37.763-37.763h9.662c3.701 27.062 26.976 47.985 55.064 47.985 30.653 0 55.592-24.913 55.592-55.535.001-4.35-.518-8.718-1.542-12.984zm-320.595-179.546h-14.31c-3.139 0-5.692-2.554-5.692-5.693s2.554-5.692 5.692-5.692h14.31c3.139 0 5.692 2.554 5.692 5.692.001 3.14-2.553 5.693-5.692 5.693zm-82.341-11.385h14.31c3.139 0 5.692 2.554 5.692 5.692 0 3.139-2.554 5.693-5.692 5.693h-14.31c-3.139 0-5.692-2.554-5.692-5.693-.001-3.138 2.553-5.692 5.692-5.692z"/><path d="m419.464 218.914c0 10.958 8.921 19.872 19.887 19.872s19.886-8.915 19.886-19.872-8.921-19.872-19.886-19.872-19.887 8.915-19.887 19.872zm24.773 0c0 2.687-2.192 4.872-4.886 4.872s-4.887-2.186-4.887-4.872 2.192-4.872 4.887-4.872 4.886 2.186 4.886 4.872z"/></g></g></svg>